<?xml version="1.0" encoding="utf-8"?>
<!-- Generator: Adobe Illustrator 26.0.1, SVG Export Plug-In . SVG Version: 6.00 Build 0)  -->
<svg version="1.1" xmlns="http://www.w3.org/2000/svg" xmlns:xlink="http://www.w3.org/1999/xlink" x="0px" y="0px"
	 viewBox="0 0 24 24" style="enable-background:new 0 0 24 24;" xml:space="preserve">
<style type="text/css">
	.st0{fill:#FFFFFF;}
</style>
<g id="Layer_1">
	<rect x="4.5" y="11.2" class="st0" width="15.1" height="1.6"/>
	<rect x="11.2" y="4.4" class="st0" width="1.6" height="15.2"/>
	<polyline class="st0" points="12.1,0.5 14.8,4.4 9.2,4.4 	"/>
	<polyline class="st0" points="19.5,9.2 19.5,14.8 23.5,12 	"/>
	<polyline class="st0" points="4.5,14.8 4.5,9.2 0.5,11.9 	"/>
	<polyline class="st0" points="14.9,19.6 9.2,19.6 12,23.5 	"/>
	<ellipse class="st0" cx="12" cy="12" rx="2.1" ry="2.1"/>
</g>
<g id="Layer_2">
	<polygon class="st0" points="8,15.3 15.4,7.9 16.2,8.7 8.8,16.1 	"/>
	<polygon class="st0" points="8.8,7.9 16.2,15.3 15.4,16.1 8,8.7 	"/>
	<polyline class="st0" points="6.5,6.4 9.7,7 7,9.7 	"/>
	<polyline class="st0" points="14.4,7 17.1,9.7 17.7,6.4 	"/>
	<polyline class="st0" points="9.8,17.1 7.1,14.3 6.4,17.6 	"/>
	<polyline class="st0" points="17.1,14.3 14.4,17.1 17.7,17.6 	"/>
</g>
</svg>
